<svg width="29" height="28" viewBox="0 0 29 28" fill="none" xmlns="http://www.w3.org/2000/svg">
<mask id="mask0_490_556" style="mask-type:alpha" maskUnits="userSpaceOnUse" x="4" y="4" width="21" height="20">
<rect x="4.5" y="4" width="20" height="20" fill="#D9D9D9"/>
</mask>
<g mask="url(#mask0_490_556)">
<path d="M19.2917 20.875C18.4167 20.875 17.6771 20.5729 17.073 19.9688C16.4688 19.3646 16.1667 18.625 16.1667 17.75C16.1667 16.875 16.4688 16.1354 17.073 15.5312C17.6771 14.9271 18.4167 14.625 19.2917 14.625C20.1667 14.625 20.9063 14.9271 21.5105 15.5312C22.1146 16.1354 22.4167 16.875 22.4167 17.75C22.4167 18.625 22.1146 19.3646 21.5105 19.9688C20.9063 20.5729 20.1667 20.875 19.2917 20.875ZM19.2917 19.2083C19.6945 19.2083 20.0382 19.066 20.323 18.7812C20.6077 18.4965 20.75 18.1528 20.75 17.75C20.75 17.3472 20.6077 17.0035 20.323 16.7188C20.0382 16.434 19.6945 16.2917 19.2917 16.2917C18.8889 16.2917 18.5452 16.434 18.2605 16.7188C17.9757 17.0035 17.8334 17.3472 17.8334 17.75C17.8334 18.1528 17.9757 18.4965 18.2605 18.7812C18.5452 19.066 18.8889 19.2083 19.2917 19.2083ZM7.83337 18.5833V16.9167H14.5V18.5833H7.83337ZM9.70837 13.375C8.83337 13.375 8.09379 13.0729 7.48962 12.4688C6.88546 11.8646 6.58337 11.125 6.58337 10.25C6.58337 9.375 6.88546 8.63542 7.48962 8.03125C8.09379 7.42708 8.83337 7.125 9.70837 7.125C10.5834 7.125 11.323 7.42708 11.9271 8.03125C12.5313 8.63542 12.8334 9.375 12.8334 10.25C12.8334 11.125 12.5313 11.8646 11.9271 12.4688C11.323 13.0729 10.5834 13.375 9.70837 13.375ZM9.70837 11.7083C10.1112 11.7083 10.4549 11.566 10.7396 11.2812C11.0243 10.9965 11.1667 10.6528 11.1667 10.25C11.1667 9.84722 11.0243 9.50347 10.7396 9.21875C10.4549 8.93403 10.1112 8.79167 9.70837 8.79167C9.3056 8.79167 8.96185 8.93403 8.67712 9.21875C8.3924 9.50347 8.25004 9.84722 8.25004 10.25C8.25004 10.6528 8.3924 10.9965 8.67712 11.2812C8.96185 11.566 9.3056 11.7083 9.70837 11.7083ZM14.5 11.0833V9.41667H21.1667V11.0833H14.5Z" fill="white"/>
</g>
</svg>
