<svg width="16" height="14" viewBox="0 0 16 14" fill="none" xmlns="http://www.w3.org/2000/svg">
<path d="M7.75 9.41667H2.15C1.7787 9.41667 1.4226 9.27619 1.16005 9.02614C0.8975 8.77609 0.75 8.43696 0.75 8.08333C0.75 7.72971 0.8975 7.39057 1.16005 7.14052C1.4226 6.89048 1.7787 6.75 2.15 6.75H13.35C13.7213 6.75 14.0774 6.89048 14.3399 7.14052C14.6025 7.39057 14.75 7.72971 14.75 8.08333C14.75 8.43696 14.6025 8.77609 14.3399 9.02614C14.0774 9.27619 13.7213 9.41667 13.35 9.41667H10.375M2.85 6.75C2.4787 6.75 2.1226 6.60952 1.86005 6.35948C1.5975 6.10943 1.45 5.77029 1.45 5.41667C1.45 4.17899 2.11375 2.992 3.29523 2.11683C4.47671 1.24167 6.07914 0.75 7.75 0.75C9.42086 0.75 11.0233 1.24167 12.2048 2.11683C13.3863 2.992 14.05 4.17899 14.05 5.41667C14.05 5.77029 13.9025 6.10943 13.6399 6.35948C13.3774 6.60952 13.0213 6.75 12.65 6.75M2.85 9.41667C2.4787 9.41667 2.1226 9.55714 1.86005 9.80719C1.5975 10.0572 1.45 10.3964 1.45 10.75C1.45 11.2804 1.67125 11.7891 2.06508 12.1642C2.4589 12.5393 2.99305 12.75 3.55 12.75H11.95C12.507 12.75 13.0411 12.5393 13.4349 12.1642C13.8288 11.7891 14.05 11.2804 14.05 10.75C14.05 10.3964 13.9025 10.0572 13.6399 9.80719C13.3774 9.55714 13.0213 9.41667 12.65 9.41667M4.019 6.75L8.31 9.81667C8.60704 10.0288 8.98042 10.1199 9.34799 10.0699C9.52999 10.0452 9.70509 9.98651 9.86329 9.8973C10.0215 9.80809 10.1597 9.69008 10.27 9.55L12.475 6.75" stroke="#666666" stroke-width="1.5" stroke-linecap="round" stroke-linejoin="round"/>
</svg>
