<svg width="68" height="58" viewBox="0 0 68 58" fill="none" xmlns="http://www.w3.org/2000/svg">
<path d="M57.3541 34.967C62.35 30.0224 65.5 25.8822 65.5 19.6468C65.4999 16.1775 64.4366 12.7898 62.4504 9.93115C60.4642 7.0725 57.6486 4.8774 54.3754 3.63576C51.1023 2.39412 47.5256 2.16437 44.1178 2.97683C40.7099 3.78929 37.6312 5.60575 35.2884 8.18631M57.3541 34.967C56.7328 35.582 55.9952 36.0699 55.1834 36.4027C54.3716 36.7356 53.5015 36.9069 52.6228 36.9069C51.7441 36.9069 50.874 36.7356 50.0622 36.4027C49.2504 36.0699 48.5128 35.582 47.8915 34.967C48.5642 35.5691 49.1062 36.3002 49.4845 37.1159C49.8629 37.9317 50.0698 38.815 50.0926 39.7124C50.1153 40.6097 49.9536 41.5022 49.617 42.3357C49.2805 43.1693 48.7763 43.9264 48.135 44.5611C47.4938 45.1958 46.7288 45.6948 45.8866 46.0279C45.0444 46.3609 44.1427 46.521 43.236 46.4985C42.3294 46.476 41.4369 46.2712 40.6127 45.8967C39.7885 45.5222 39.0498 44.9858 38.4415 44.32C39.0633 44.9331 39.5569 45.6614 39.8941 46.4634C40.2313 47.2654 40.4055 48.1253 40.4067 48.994C40.4079 49.8626 40.236 50.723 39.901 51.5259C39.5659 52.3287 39.0743 53.0584 38.4541 53.673C37.8555 54.2656 37.1424 54.7328 36.3573 55.0465C35.5723 55.3602 34.7314 55.5141 33.8849 55.499C33.0384 55.4839 32.2036 55.3 31.4305 54.9584C30.6574 54.6168 29.9618 54.1245 29.3853 53.5109L11.95 36.794C7.225 32.1175 2.5 26.8175 2.5 19.6468C2.5007 16.1778 3.56452 12.7905 5.55096 9.93234C7.5374 7.07418 10.353 4.87957 13.626 3.63832C16.899 2.39707 20.4755 2.16757 23.883 2.98013C27.2905 3.79268 30.3689 5.60907 32.7116 8.18943C33.0619 8.51159 33.5225 8.6904 34.0006 8.68982C34.4788 8.68924 34.9389 8.50932 35.2884 8.18631M57.3541 34.967C58.5352 33.7977 59.1987 32.2121 59.1987 30.5587C59.1987 28.9053 58.5352 27.3196 57.3541 26.1503L51.429 20.2829C50.724 19.5848 49.8869 19.0311 48.9657 18.6533C48.0444 18.2755 47.057 18.081 46.0598 18.081C45.0626 18.081 44.0751 18.2755 43.1539 18.6533C42.2326 19.0311 41.3956 19.5848 40.6906 20.2829L35.3041 25.6141C34.1227 26.783 32.5205 27.4397 30.85 27.4397C29.1795 27.4397 27.5773 26.783 26.3959 25.6141C25.2148 24.4448 24.5513 22.8591 24.5513 21.2057C24.5513 19.5523 25.2148 17.9666 26.3959 16.7973L35.2884 8.18631" stroke="url(#paint0_linear_289_285)" stroke-width="5" stroke-linecap="round" stroke-linejoin="round"/>
<defs>
<linearGradient id="paint0_linear_289_285" x1="49.75" y1="5.61766" x2="7.73672" y2="55.9276" gradientUnits="userSpaceOnUse">
<stop stop-color="#5569B5"/>
<stop offset="1" stop-color="#D57E63"/>
</linearGradient>
</defs>
</svg>
