<svg width="65" height="65" viewBox="0 0 65 65" fill="none" xmlns="http://www.w3.org/2000/svg">
<path d="M32.4984 14.4984V32.4984L43.4304 37.9644M44.4984 53.4984H62.4984M53.4984 44.4984V62.4984M62.2584 36.2994C63.051 30.0915 61.8823 23.7912 58.916 18.2806C55.9497 12.7699 51.3343 8.32493 45.716 5.56795C40.0977 2.81096 33.7579 1.88004 27.5842 2.90552C21.4105 3.931 15.7121 6.86154 11.2868 11.2868C6.86154 15.7121 3.931 21.4105 2.90552 27.5842C1.88004 33.7579 2.81096 40.0977 5.56795 45.716C8.32493 51.3343 12.7699 55.9497 18.2806 58.916C23.7912 61.8823 30.0915 63.051 36.2994 62.2584" stroke="url(#paint0_linear_384_398)" stroke-width="5" stroke-linecap="round" stroke-linejoin="round"/>
<defs>
<linearGradient id="paint0_linear_384_398" x1="32.5" y1="2.5" x2="32.5" y2="62.5" gradientUnits="userSpaceOnUse">
<stop stop-color="#6C5B8C"/>
<stop offset="1" stop-color="#B8756E"/>
</linearGradient>
</defs>
</svg>
