<svg width="63" height="63" viewBox="0 0 63 63" fill="none" xmlns="http://www.w3.org/2000/svg">
<path d="M32.6742 34.4493C33.9966 31.3852 36.3359 28.8708 39.2975 27.3303C42.259 25.7899 45.6615 25.3176 48.9309 25.9933C52.2003 26.669 55.1365 28.4512 57.244 31.0393C59.3516 33.6274 60.5016 36.8629 60.5 40.2C60.5 51.4114 48.895 60.5 34.3888 60.5C22.5604 60.5 10.735 58.122 4.29999 53.3602C3.06406 52.4438 2.4693 50.9474 2.50122 49.4104C2.81745 33.5967 4.29419 2.5 25.6851 2.5C27.9934 2.5 30.2073 3.4166 31.8395 5.04817C33.4718 6.67974 34.3888 8.89262 34.3888 11.2C34.3888 12.7383 33.7775 14.2135 32.6893 15.3012C31.6011 16.3889 30.1252 17 28.5863 17C25.3804 17 23.8283 15.7124 22.7838 14.1M40.1913 37.3C38.4404 35.9866 36.4147 35.0864 34.2663 34.6668C32.1178 34.2472 29.9022 34.319 27.7854 34.877C25.6687 35.435 23.7057 36.4646 22.0437 37.8887C20.3816 39.3127 19.0635 41.0944 18.1882 43.1M25.5806 16.4925C19.9377 19.8333 24.2344 34.4 19.8826 40.2" stroke="url(#paint0_linear_369_297)" stroke-width="5" stroke-linecap="round" stroke-linejoin="round"/>
<defs>
<linearGradient id="paint0_linear_369_297" x1="31.5" y1="2.5" x2="31.5" y2="60.5" gradientUnits="userSpaceOnUse">
<stop stop-color="#715C8A"/>
<stop offset="1" stop-color="#C57969"/>
</linearGradient>
</defs>
</svg>
