<svg width="48" height="48" viewBox="0 0 48 48" fill="none" xmlns="http://www.w3.org/2000/svg">
<mask id="mask0_423_1666" style="mask-type:alpha" maskUnits="userSpaceOnUse" x="8" y="8" width="32" height="32">
<rect x="8" y="8" width="32" height="32" fill="#D9D9D9"/>
</mask>
<g mask="url(#mask0_423_1666)">
<path d="M24 29.3332L25.8666 27.4665L23.7333 25.3332H29.3333V22.6665H23.7333L25.8666 20.5332L24 18.6665L18.6666 23.9998L24 29.3332ZM24 37.3332C22.1555 37.3332 20.4222 36.9832 18.8 36.2832C17.1777 35.5832 15.7666 34.6332 14.5666 33.4332C13.3666 32.2332 12.4166 30.8221 11.7166 29.1998C11.0166 27.5776 10.6666 25.8443 10.6666 23.9998C10.6666 22.1554 11.0166 20.4221 11.7166 18.7998C12.4166 17.1776 13.3666 15.7665 14.5666 14.5665C15.7666 13.3665 17.1777 12.4165 18.8 11.7165C20.4222 11.0165 22.1555 10.6665 24 10.6665C25.8444 10.6665 27.5777 11.0165 29.2 11.7165C30.8222 12.4165 32.2333 13.3665 33.4333 14.5665C34.6333 15.7665 35.5833 17.1776 36.2833 18.7998C36.9833 20.4221 37.3333 22.1554 37.3333 23.9998C37.3333 25.8443 36.9833 27.5776 36.2833 29.1998C35.5833 30.8221 34.6333 32.2332 33.4333 33.4332C32.2333 34.6332 30.8222 35.5832 29.2 36.2832C27.5777 36.9832 25.8444 37.3332 24 37.3332Z" fill="white"/>
</g>
</svg>
