<svg width="53" height="53" viewBox="0 0 53 53" fill="none" xmlns="http://www.w3.org/2000/svg">
<path d="M50.5 31.8333V21.1667C50.5 19.6939 49.3061 18.5 47.8333 18.5H34.5V5.16667C34.5 3.69392 33.3061 2.5 31.8333 2.5H21.1667C19.6939 2.5 18.5 3.69392 18.5 5.16667V18.5H5.16667C3.69392 18.5 2.5 19.6939 2.5 21.1667V31.8333C2.5 33.3061 3.69392 34.5 5.16667 34.5H18.5V47.8333C18.5 49.3061 19.6939 50.5 21.1667 50.5H31.8333C33.3061 50.5 34.5 49.3061 34.5 47.8333V34.5H47.8333C49.3061 34.5 50.5 33.3061 50.5 31.8333Z" stroke="url(#paint0_linear_369_282)" stroke-width="5" stroke-linecap="round" stroke-linejoin="round"/>
<defs>
<linearGradient id="paint0_linear_369_282" x1="6.5" y1="-1.5" x2="43.8333" y2="50.5" gradientUnits="userSpaceOnUse">
<stop stop-color="#4F5197"/>
<stop offset="1" stop-color="#C2786A"/>
</linearGradient>
</defs>
</svg>
