<svg width="68" height="61" viewBox="0 0 68 61" fill="none" xmlns="http://www.w3.org/2000/svg">
<path d="M46.6 29.1947H43.45L37.15 37.0448L30.85 21.3446L26.125 29.1947H21.4M33.9786 9.21092C27.6805 1.87137 17.1782 -0.102958 9.28728 6.61788C1.39637 13.3387 0.285455 24.5757 6.48224 32.5244C11.6344 39.1332 27.2268 53.0718 32.3371 57.5831C32.9089 58.088 33.1949 58.3402 33.5282 58.4394C33.8192 58.5261 34.1377 58.5261 34.4287 58.4394C34.762 58.3402 35.048 58.088 35.6198 57.5831C40.73 53.0718 56.3225 39.1332 61.4747 32.5244C67.6714 24.5757 66.6961 13.268 58.6696 6.61788C50.6431 -0.0322445 40.2764 1.87137 33.9786 9.21092Z" stroke="url(#paint0_linear_369_287)" stroke-width="5" stroke-linecap="round" stroke-linejoin="round"/>
<defs>
<linearGradient id="paint0_linear_369_287" x1="48.5" y1="2.5044" x2="23" y2="51.5044" gradientUnits="userSpaceOnUse">
<stop stop-color="#5569B5"/>
<stop offset="1" stop-color="#B87976"/>
</linearGradient>
</defs>
</svg>
