<svg width="57" height="70" viewBox="0 0 57 70" fill="none" xmlns="http://www.w3.org/2000/svg">
<path d="M41.5 9H48C49.7239 9 51.3772 9.68482 52.5962 10.9038C53.8152 12.1228 54.5 13.7761 54.5 15.5V61C54.5 62.7239 53.8152 64.3772 52.5962 65.5962C51.3772 66.8152 49.7239 67.5 48 67.5H9C7.27609 67.5 5.62279 66.8152 4.40381 65.5962C3.18482 64.3772 2.5 62.7239 2.5 61V15.5C2.5 13.7761 3.18482 12.1228 4.40381 10.9038C5.62279 9.68482 7.27609 9 9 9H15.5M18.75 41.5H38.25M28.5 51.25V31.75M18.75 2.5H38.25C40.0449 2.5 41.5 3.95507 41.5 5.75V12.25C41.5 14.0449 40.0449 15.5 38.25 15.5H18.75C16.9551 15.5 15.5 14.0449 15.5 12.25V5.75C15.5 3.95507 16.9551 2.5 18.75 2.5Z" stroke="url(#paint0_linear_384_391)" stroke-width="5" stroke-linecap="round" stroke-linejoin="round"/>
<defs>
<linearGradient id="paint0_linear_384_391" x1="28.5" y1="2.5" x2="28.5" y2="67.5" gradientUnits="userSpaceOnUse">
<stop stop-color="#6B5B8D"/>
<stop offset="1" stop-color="#B8756E"/>
</linearGradient>
</defs>
</svg>
