<svg width="16" height="17" viewBox="0 0 16 17" fill="none" xmlns="http://www.w3.org/2000/svg">
<mask id="mask0_490_568" style="mask-type:alpha" maskUnits="userSpaceOnUse" x="0" y="0" width="16" height="17">
<rect y="0.5" width="16" height="16" fill="#D9D9D9"/>
</mask>
<g mask="url(#mask0_490_568)">
<path d="M7.99996 8.49992C8.36663 8.49992 8.68052 8.36936 8.94163 8.10825C9.20274 7.84714 9.33329 7.53325 9.33329 7.16658C9.33329 6.79992 9.20274 6.48603 8.94163 6.22492C8.68052 5.96381 8.36663 5.83325 7.99996 5.83325C7.63329 5.83325 7.3194 5.96381 7.05829 6.22492C6.79718 6.48603 6.66663 6.79992 6.66663 7.16658C6.66663 7.53325 6.79718 7.84714 7.05829 8.10825C7.3194 8.36936 7.63329 8.49992 7.99996 8.49992ZM7.99996 15.1666C6.21107 13.6444 4.87496 12.2305 3.99163 10.9249C3.10829 9.61936 2.66663 8.41103 2.66663 7.29992C2.66663 5.63325 3.20274 4.30547 4.27496 3.31659C5.34718 2.3277 6.58885 1.83325 7.99996 1.83325C9.41107 1.83325 10.6527 2.3277 11.725 3.31659C12.7972 4.30547 13.3333 5.63325 13.3333 7.29992C13.3333 8.41103 12.8916 9.61936 12.0083 10.9249C11.125 12.2305 9.78885 13.6444 7.99996 15.1666Z" fill="#E6210F"/>
</g>
</svg>
