<svg width="43" height="41" viewBox="0 0 43 41" fill="none" xmlns="http://www.w3.org/2000/svg">
<g clip-path="url(#clip0_87_1694)">
<path d="M13 32C10.8 32 9.02 33.8 9.02 36C9.02 38.2 10.8 40 13 40C15.2 40 17 38.2 17 36C17 33.8 15.2 32 13 32ZM33 32C30.8 32 29.02 33.8 29.02 36C29.02 38.2 30.8 40 33 40C35.2 40 37 38.2 37 36C37 33.8 35.2 32 33 32ZM30.1 22C31.6 22 32.92 21.18 33.6 19.94L40.76 6.96C40.9286 6.65685 41.015 6.31494 41.0109 5.96811C41.0067 5.62128 40.9121 5.28154 40.7363 4.98252C40.5605 4.6835 40.3097 4.43556 40.0087 4.26324C39.7077 4.09091 39.3669 4.00017 39.02 4H9.42L7.54 0H1V4H5L12.2 19.18L9.5 24.06C8.04 26.74 9.96 30 13 30H37V26H13L15.2 22H30.1ZM11.32 8H35.62L30.1 18H16.06L11.32 8Z" fill="#4B57A3"/>
</g>
<defs>
<clipPath id="clip0_87_1694">
<rect width="42" height="40" fill="white" transform="translate(0.5 0.088623)"/>
</clipPath>
</defs>
</svg>
