<svg width="20" height="20" viewBox="0 0 20 20" fill="none" xmlns="http://www.w3.org/2000/svg">
<mask id="mask0_616_1138" style="mask-type:alpha" maskUnits="userSpaceOnUse" x="0" y="0" width="20" height="20">
<rect width="20" height="20" fill="#D9D9D9"/>
</mask>
<g mask="url(#mask0_616_1138)">
<path d="M5.00004 11.6666C4.54171 11.6666 4.14935 11.5034 3.82296 11.177C3.49657 10.8506 3.33337 10.4583 3.33337 9.99992C3.33337 9.54159 3.49657 9.14922 3.82296 8.82284C4.14935 8.49645 4.54171 8.33325 5.00004 8.33325C5.45837 8.33325 5.85074 8.49645 6.17712 8.82284C6.50351 9.14922 6.66671 9.54159 6.66671 9.99992C6.66671 10.4583 6.50351 10.8506 6.17712 11.177C5.85074 11.5034 5.45837 11.6666 5.00004 11.6666ZM10 11.6666C9.54171 11.6666 9.14935 11.5034 8.82296 11.177C8.49657 10.8506 8.33337 10.4583 8.33337 9.99992C8.33337 9.54159 8.49657 9.14922 8.82296 8.82284C9.14935 8.49645 9.54171 8.33325 10 8.33325C10.4584 8.33325 10.8507 8.49645 11.1771 8.82284C11.5035 9.14922 11.6667 9.54159 11.6667 9.99992C11.6667 10.4583 11.5035 10.8506 11.1771 11.177C10.8507 11.5034 10.4584 11.6666 10 11.6666ZM15 11.6666C14.5417 11.6666 14.1493 11.5034 13.823 11.177C13.4966 10.8506 13.3334 10.4583 13.3334 9.99992C13.3334 9.54159 13.4966 9.14922 13.823 8.82284C14.1493 8.49645 14.5417 8.33325 15 8.33325C15.4584 8.33325 15.8507 8.49645 16.1771 8.82284C16.5035 9.14922 16.6667 9.54159 16.6667 9.99992C16.6667 10.4583 16.5035 10.8506 16.1771 11.177C15.8507 11.5034 15.4584 11.6666 15 11.6666Z" fill="white"/>
</g>
</svg>
