<svg width="56" height="56" viewBox="0 0 56 56" fill="none" xmlns="http://www.w3.org/2000/svg">
<path d="M3.94591 52.0541L7.49072 48.5093M48.5093 7.49072L52.0541 3.94591M21.9232 34.0768L34.0768 21.9232M42.1691 29.9446C43.119 30.8945 44.4073 31.4281 45.7507 31.4281C47.094 31.4281 48.3823 30.8945 49.3322 29.9446C50.2821 28.9947 50.8157 27.7064 50.8157 26.3631C50.8157 25.0197 50.2821 23.7314 49.3322 22.7815L44.8556 18.3075C45.8055 19.257 47.0937 19.7903 48.4367 19.7901C49.1018 19.79 49.7603 19.6589 50.3746 19.4043C50.989 19.1497 51.5472 18.7765 52.0174 18.3062C52.4875 17.8359 52.8605 17.2775 53.1149 16.6631C53.3692 16.0486 53.5001 15.3901 53.5 14.725C53.4999 14.06 53.3688 13.4015 53.1142 12.7871C52.8596 12.1728 52.4864 11.6146 52.0161 11.1444L44.8556 3.98389C43.906 3.03401 42.6181 2.50024 41.275 2.5C39.9319 2.49976 38.6437 3.03308 37.6938 3.98262C36.7439 4.93217 36.2102 6.22016 36.2099 7.56326C36.2097 8.90635 36.743 10.1945 37.6925 11.1444L33.2185 6.66782C32.7481 6.19749 32.1898 5.8244 31.5753 5.56985C30.9607 5.31531 30.3021 5.1843 29.6369 5.1843C28.9718 5.1843 28.3132 5.31531 27.6986 5.56985C27.0841 5.8244 26.5258 6.19749 26.0554 6.66782C25.5851 7.13815 25.212 7.69652 24.9575 8.31104C24.7029 8.92556 24.5719 9.5842 24.5719 10.2493C24.5719 10.9145 24.7029 11.5731 24.9575 12.1877C25.212 12.8022 25.5851 13.3605 26.0554 13.8309L42.1691 29.9446ZM11.1444 52.0161C12.094 52.966 13.3819 53.4998 14.725 53.5C15.3901 53.5001 16.0486 53.3692 16.6631 53.1149C17.2775 52.8605 17.8359 52.4875 18.3062 52.0174C18.7765 51.5472 19.1497 50.989 19.4043 50.3746C19.6589 49.7603 19.79 49.1018 19.7901 48.4367C19.7902 47.7717 19.6593 47.1132 19.4049 46.4987C19.1506 45.8843 18.7776 45.3259 18.3075 44.8556L22.7815 49.3322C23.7314 50.2821 25.0197 50.8157 26.3631 50.8157C27.7064 50.8157 28.9947 50.2821 29.9446 49.3322C30.8945 48.3823 31.4281 47.094 31.4281 45.7507C31.4281 44.4073 30.8945 43.119 29.9446 42.1691L13.8309 26.0554C13.3605 25.5851 12.8022 25.212 12.1877 24.9575C11.5731 24.7029 10.9145 24.5719 10.2493 24.5719C9.5842 24.5719 8.92556 24.7029 8.31104 24.9575C7.69652 25.212 7.13815 25.5851 6.66782 26.0554C6.19749 26.5258 5.8244 27.0841 5.56985 27.6986C5.31531 28.3132 5.1843 28.9718 5.1843 29.6369C5.1843 30.3021 5.31531 30.9607 5.56985 31.5753C5.8244 32.1898 6.19749 32.7481 6.66782 33.2185L11.1444 37.6925C10.1945 36.743 8.90635 36.2097 7.56326 36.2099C6.22016 36.2102 4.93217 36.7439 3.98262 37.6938C3.03308 38.6437 2.49976 39.9319 2.5 41.275C2.50024 42.6181 3.03401 43.906 3.98389 44.8556L11.1444 52.0161Z" stroke="url(#paint0_linear_289_286)" stroke-width="5" stroke-linecap="round" stroke-linejoin="round"/>
<defs>
<linearGradient id="paint0_linear_289_286" x1="58.2042" y1="-6.36203" x2="-7.62804" y2="49.3422" gradientUnits="userSpaceOnUse">
<stop stop-color="#5569B5"/>
<stop offset="1" stop-color="#D57E63"/>
</linearGradient>
</defs>
</svg>
