<svg width="22" height="21" viewBox="0 0 22 21" fill="none" xmlns="http://www.w3.org/2000/svg">
<path d="M12.2943 2.6905C11.7354 1.67478 10.2645 1.67478 9.70483 2.6905C8.96879 4.02797 8.36204 5.43262 7.89283 6.88535C7.8707 6.94219 7.83177 6.99093 7.78124 7.02508C7.7307 7.05923 7.67096 7.07717 7.60997 7.0765C6.35251 7.10918 5.09915 7.23409 3.85997 7.45021C2.71397 7.64993 2.20911 9.02478 3.07997 9.87593C3.18969 9.98335 3.30054 10.0902 3.41254 10.1965C4.25152 10.9909 5.13987 11.7315 6.07226 12.4139C6.11462 12.442 6.14671 12.4831 6.16371 12.5311C6.18071 12.579 6.1817 12.6311 6.16654 12.6796C5.69583 14.092 5.35948 15.5455 5.16197 17.0211C4.99911 18.2416 6.29169 18.9908 7.30054 18.4731C8.5253 17.8454 9.69638 17.1181 10.802 16.2985C10.8599 16.2575 10.929 16.2355 11 16.2355C11.0709 16.2355 11.1401 16.2575 11.198 16.2985C12.3029 17.119 13.4741 17.8464 14.6994 18.4731C15.7083 18.9908 17.0008 18.2416 16.838 17.0211C16.6407 15.5456 16.3047 14.092 15.8343 12.6796C15.8191 12.6311 15.8201 12.579 15.8371 12.5311C15.8541 12.4831 15.8862 12.442 15.9285 12.4139C16.985 11.6407 17.9847 10.7928 18.92 9.87678C19.7908 9.02478 19.286 7.64993 18.14 7.45021C16.9005 7.23405 15.6469 7.10914 14.3891 7.0765C14.3283 7.07699 14.2687 7.05898 14.2183 7.02484C14.168 6.9907 14.1292 6.94205 14.1071 6.88535C13.6394 5.43206 13.0317 4.02727 12.2943 2.6905Z" fill="#FFC60B"/>
</svg>
