<svg width="34" height="33" viewBox="0 0 34 33" fill="none" xmlns="http://www.w3.org/2000/svg">
<path d="M14.402 30.0001C14.6653 30.4561 15.044 30.8348 15.5001 31.0981C15.9561 31.3614 16.4734 31.5 17 31.5C17.5266 31.5 18.0439 31.3614 18.4999 31.0981C18.956 30.8348 19.3347 30.4561 19.598 30.0001M32 10.5C32 7.05002 30.8 4.05001 29 1.5M5 1.5C3.2 4.05001 2 7.05002 2 10.5M3.893 21.4891C3.69705 21.7039 3.56773 21.971 3.52078 22.2579C3.47384 22.5448 3.51128 22.8392 3.62856 23.1052C3.74584 23.3712 3.9379 23.5974 4.18138 23.7563C4.42486 23.9152 4.70927 23.9999 5 24.0001H29C29.2907 24.0002 29.5752 23.9158 29.8188 23.7573C30.0624 23.5987 30.2547 23.3727 30.3723 23.1069C30.4899 22.841 30.5277 22.5467 30.4812 22.2598C30.4346 21.9728 30.3056 21.7056 30.11 21.4906C28.115 19.4341 26 17.2486 26 10.5C26 8.11308 25.0518 5.82389 23.364 4.13605C21.6761 2.44822 19.3869 1.5 17 1.5C14.6131 1.5 12.3239 2.44822 10.636 4.13605C8.94821 5.82389 8 8.11308 8 10.5C8 17.2486 5.8835 19.4341 3.893 21.4891Z" stroke="white" stroke-width="3" stroke-linecap="round" stroke-linejoin="round"/>
</svg>
