<svg width="34" height="31" viewBox="0 0 34 31" fill="none" xmlns="http://www.w3.org/2000/svg">
<path d="M2 29C1.99987 26.6905 2.6662 24.43 3.91902 22.4898C5.17183 20.5496 6.95791 19.0122 9.0629 18.062C11.1679 17.1118 13.5024 16.7893 15.7861 17.133C18.0699 17.4768 20.206 18.4723 21.938 20M23 26L26 29L32 23M21.5 9.5C21.5 13.6421 18.1421 17 14 17C9.85786 17 6.5 13.6421 6.5 9.5C6.5 5.35786 9.85786 2 14 2C18.1421 2 21.5 5.35786 21.5 9.5Z" stroke="white" stroke-width="3" stroke-linecap="round" stroke-linejoin="round"/>
</svg>
