<svg width="240" height="68" viewBox="0 0 240 68" fill="none" xmlns="http://www.w3.org/2000/svg">
<path d="M8.63862 0.0426977L98.8303 0C103.891 0.57189 107.478 4.75497 107.815 9.76741V57.7803C107.426 62.9351 103.638 67.5451 98.3146 67.9372H9.5008C4.27989 67.5503 0.479564 63.102 0.00646313 58.0326L0 9.50864C0.405885 4.77826 3.86625 0.706452 8.63862 0.0426977ZM8.76659 0.816431C4.29928 1.50736 1.10132 5.31262 0.775576 9.76741L0.782039 57.7738C1.21895 62.6491 4.71809 66.8154 9.75933 67.1608H98.0561C103.26 66.7779 106.721 62.4266 107.04 57.3921V10.0262C106.736 5.26346 103.415 1.2654 98.5731 0.775027L8.76659 0.816431Z" fill="#434D9C"/>
<path d="M96.3705 5.95697C98.8368 6.24939 101.242 8.72067 101.332 11.2463C85.3301 19.1777 69.3636 27.1958 53.613 35.6163C52.9537 35.8104 49.5722 35.8208 48.7941 35.7237C48.6519 35.7056 48.5058 35.7328 48.4127 35.5879C43.8989 23.9185 36.3577 13.5054 26.3735 5.95826H96.3692L96.3705 5.95697Z" fill="url(#paint0_linear_428_135)"/>
<path d="M40.3351 35.716H11.5742C8.89198 35.716 6.51096 32.7685 6.33258 30.2235C5.90213 24.0323 6.65444 17.3288 6.35455 11.0846C7.20381 6.23645 11.3454 5.55587 15.5878 5.9518C16.3168 6.02037 17.8434 7.18873 18.5311 7.66358C23.3901 11.016 28.0965 15.5381 31.8012 20.1287C35.4929 24.7038 38.7103 30.0242 40.3351 35.7172V35.716Z" fill="url(#paint1_linear_428_135)"/>
<path d="M101.347 18.3781V30.8639C101.347 32.9755 98.1853 35.716 96.1119 35.716H66.1876L74.4579 31.2495C83.3447 26.8077 92.2315 22.3425 101.347 18.3781Z" fill="url(#paint2_linear_428_135)"/>
<path d="M45.1592 58.2707C46.3019 57.2278 47.3903 58.8853 48.2602 59.4183C51.2022 61.222 56.1077 61.1017 58.2276 58.0882C59.148 56.7788 59.4285 55.1369 59.2734 53.5713C55.2792 59.1673 44.394 57.1644 43.8213 49.8877C43.0057 39.5109 59.9973 38.741 61.6311 47.7166C62.0215 49.8605 62.0034 55.7075 61.1697 57.669C58.8959 63.0205 51.1402 63.7929 46.7052 60.8455C46.0253 60.3939 44.2285 59.1182 45.1592 58.2694V58.2707ZM51.4233 43.5154C47.0645 44.0368 44.5711 49.0557 47.4471 52.5984C51.1557 57.1657 60.725 54.4861 59.1247 47.767C58.2974 44.293 54.6342 43.1311 51.4233 43.5154Z" fill="#434D9C"/>
<path d="M81.0528 53.9595C77.1504 58.5049 67.9301 57.4193 65.9989 51.496C62.9923 42.2759 76.835 38.0423 82.0844 44.8403C84.4744 47.9352 83.2115 52.2801 83.4817 55.9378C83.1585 57.0493 81.0528 56.6378 81.0528 55.965V53.9595ZM73.2686 43.5154C69.3623 43.9825 66.6724 48.2471 68.7483 51.8492C71.49 56.6081 80.5849 55.4772 81.058 49.7583C81.4342 45.2026 77.3378 43.0276 73.2686 43.5141V43.5154Z" fill="#434D9C"/>
<path d="M27.0211 49.8191C27.6648 54.2351 32.3868 55.6519 36.2271 54.4408C37.0984 54.1665 39.1368 52.6152 39.7508 53.9621C40.1735 54.8885 38.7801 55.4927 38.0963 55.7942C32.273 58.3612 24.0997 55.6765 24.6969 48.3338C25.4324 39.287 40.7668 39.1732 41.2387 48.3338C41.2619 48.7866 41.1314 49.8191 40.529 49.8191H27.0211ZM27.1503 48.1371H38.7193C39.0955 48.1371 38.497 46.5223 38.3807 46.2765C36.191 41.6781 27.5743 42.7326 27.1503 48.1371Z" fill="#434D9C"/>
<path d="M92.9179 41.5759C94.955 41.3689 97.1047 41.5099 98.9363 42.4622C99.6486 42.8322 101.977 44.3461 100.512 45.1677C99.3616 45.8133 98.705 44.7756 97.8971 44.2788C96.2567 43.2683 93.2824 43.0082 91.5826 43.9941C90.0754 44.8688 90.14 46.4783 91.6925 47.256C94.3204 48.5705 102.033 47.9508 101.441 52.8274C100.831 57.8579 90.4864 57.5888 87.7086 54.6064C86.8089 53.6399 87.9477 52.7873 89.0051 52.9192C89.6191 52.9956 89.8634 53.5222 90.3132 53.8107C92.1307 54.9713 95.8974 55.2327 97.8118 54.2429C99.3319 53.4562 99.5038 51.8583 98.0263 50.8788C96.2903 49.726 93.0045 49.8489 90.8755 48.9794C85.789 46.9002 88.1313 42.0675 92.9153 41.5798L92.9179 41.5759Z" fill="#434D9C"/>
<path d="M14.6131 53.57L20.8901 42.065C21.2366 41.3857 22.6727 41.5849 22.9467 42.1879C23.1949 42.73 22.8006 43.2605 22.5641 43.7418C20.5437 47.8524 17.9585 51.8427 15.8812 55.943C15.465 56.7012 14.4115 56.8759 13.7665 56.2949C13.5803 56.128 13.327 55.6001 13.1667 55.3426C11.0326 51.9074 8.25213 46.9881 6.53035 43.3549C6.32611 42.9254 6.0831 42.7559 6.35455 42.272C6.74105 41.5811 7.85658 41.3999 8.38656 42.0132L14.6118 53.5739L14.6131 53.57Z" fill="#434D9C"/>
<path d="M127.501 23.4094C125.959 23.4094 124.647 23.1477 123.564 22.6241C122.498 22.0837 121.67 21.3068 121.08 20.2934C120.489 19.2632 120.161 18.0134 120.096 16.5441C120.079 15.8517 120.071 15.1086 120.071 14.3148C120.071 13.521 120.079 12.761 120.096 12.0348C120.161 10.5823 120.489 9.34944 121.08 8.3361C121.687 7.30588 122.531 6.52055 123.614 5.9801C124.696 5.43966 125.992 5.16943 127.501 5.16943C128.6 5.16943 129.6 5.31299 130.502 5.6001C131.404 5.88721 132.183 6.30099 132.839 6.84143C133.495 7.38188 134.004 8.01521 134.365 8.74144C134.725 9.46766 134.922 10.2783 134.955 11.1734C134.955 11.3254 134.898 11.4521 134.783 11.5534C134.684 11.6548 134.561 11.7054 134.414 11.7054H131.609C131.412 11.7054 131.257 11.6548 131.142 11.5534C131.027 11.4521 130.937 11.2832 130.871 11.0468C130.625 10.0503 130.215 9.36633 129.641 8.99477C129.067 8.62321 128.354 8.43744 127.501 8.43744C126.484 8.43744 125.68 8.72455 125.09 9.29877C124.499 9.87299 124.18 10.8272 124.13 12.1614C124.081 13.5463 124.081 14.965 124.13 16.4174C124.18 17.7517 124.499 18.7059 125.09 19.2801C125.68 19.8543 126.484 20.1414 127.501 20.1414C128.354 20.1414 129.067 19.9557 129.641 19.5841C130.232 19.1957 130.642 18.5117 130.871 17.5321C130.937 17.2788 131.027 17.1099 131.142 17.0254C131.257 16.9241 131.412 16.8734 131.609 16.8734H134.414C134.561 16.8734 134.684 16.9241 134.783 17.0254C134.898 17.1268 134.955 17.2534 134.955 17.4054C134.922 18.3006 134.725 19.1112 134.365 19.8374C134.004 20.5637 133.495 21.197 132.839 21.7374C132.183 22.2779 131.404 22.6917 130.502 22.9788C129.6 23.2659 128.6 23.4094 127.501 23.4094Z" fill="url(#paint3_linear_428_135)"/>
<path d="M138.334 23.1561C138.154 23.1561 138.006 23.097 137.892 22.9788C137.777 22.8606 137.719 22.7086 137.719 22.5228V6.0561C137.719 5.87032 137.777 5.71832 137.892 5.6001C138.006 5.48188 138.154 5.42277 138.334 5.42277H141.065C141.246 5.42277 141.393 5.48188 141.508 5.6001C141.623 5.71832 141.68 5.87032 141.68 6.0561V19.7614H149.307C149.487 19.7614 149.635 19.8206 149.75 19.9388C149.864 20.057 149.922 20.209 149.922 20.3948V22.5228C149.922 22.7086 149.864 22.8606 149.75 22.9788C149.635 23.097 149.487 23.1561 149.307 23.1561H138.334Z" fill="url(#paint4_linear_428_135)"/>
<path d="M158.882 23.4094C157.439 23.4094 156.176 23.1646 155.094 22.6748C154.011 22.1681 153.175 21.3997 152.584 20.3694C151.994 19.3223 151.699 17.9966 151.699 16.3921V6.0561C151.699 5.87032 151.756 5.71832 151.871 5.6001C151.986 5.48188 152.133 5.42277 152.314 5.42277H154.995C155.176 5.42277 155.323 5.48188 155.438 5.6001C155.553 5.71832 155.61 5.87032 155.61 6.0561V16.3668C155.61 17.6166 155.897 18.5454 156.471 19.1534C157.045 19.7614 157.849 20.0654 158.882 20.0654C159.899 20.0654 160.695 19.7614 161.269 19.1534C161.843 18.5454 162.13 17.6166 162.13 16.3668V6.0561C162.13 5.87032 162.187 5.71832 162.302 5.6001C162.433 5.48188 162.581 5.42277 162.745 5.42277H165.451C165.615 5.42277 165.754 5.48188 165.869 5.6001C165.984 5.71832 166.041 5.87032 166.041 6.0561V16.3921C166.041 17.9966 165.746 19.3223 165.156 20.3694C164.565 21.3997 163.737 22.1681 162.671 22.6748C161.605 23.1646 160.342 23.4094 158.882 23.4094Z" fill="url(#paint5_linear_428_135)"/>
<path d="M170.144 23.1561C169.963 23.1561 169.816 23.097 169.701 22.9788C169.586 22.8606 169.529 22.7086 169.529 22.5228V6.0561C169.529 5.87032 169.586 5.71832 169.701 5.6001C169.816 5.48188 169.963 5.42277 170.144 5.42277H177.45C178.812 5.42277 179.927 5.62543 180.796 6.03077C181.666 6.4361 182.305 7.01032 182.715 7.75343C183.142 8.49655 183.355 9.36633 183.355 10.3628C183.355 10.9877 183.24 11.5365 183.01 12.0094C182.797 12.4823 182.527 12.8708 182.199 13.1748C181.887 13.4788 181.584 13.7068 181.288 13.8588C181.928 14.1628 182.486 14.6694 182.961 15.3788C183.453 16.0712 183.699 16.8988 183.699 17.8614C183.699 18.9254 183.47 19.8543 183.01 20.6481C182.551 21.4419 181.871 22.0583 180.968 22.4974C180.066 22.9366 178.968 23.1561 177.672 23.1561H170.144ZM173.44 20.1921H177.204C178.008 20.1921 178.615 19.9641 179.025 19.5081C179.435 19.0352 179.64 18.4779 179.64 17.8361C179.64 17.1774 179.427 16.6286 179 16.1894C178.59 15.7334 177.992 15.5054 177.204 15.5054H173.44V20.1921ZM173.44 12.5921H176.983C177.754 12.5921 178.328 12.3979 178.705 12.0094C179.099 11.6041 179.296 11.089 179.296 10.4641C179.296 9.83921 179.099 9.34099 178.705 8.96944C178.328 8.58099 177.754 8.38677 176.983 8.38677H173.44V12.5921Z" fill="url(#paint6_linear_428_135)"/>
<path d="M187.25 23.1561C187.069 23.1561 186.922 23.097 186.807 22.9788C186.692 22.8606 186.635 22.7086 186.635 22.5228V6.0561C186.635 5.87032 186.692 5.71832 186.807 5.6001C186.922 5.48188 187.069 5.42277 187.25 5.42277H198.394C198.575 5.42277 198.722 5.48188 198.837 5.6001C198.952 5.71832 199.009 5.87032 199.009 6.0561V8.08277C199.009 8.25166 198.952 8.39521 198.837 8.51344C198.722 8.63166 198.575 8.69077 198.394 8.69077H190.423V12.6681H197.853C198.033 12.6681 198.181 12.7272 198.296 12.8454C198.411 12.9637 198.468 13.1157 198.468 13.3014V15.1761C198.468 15.345 198.411 15.4886 198.296 15.6068C198.181 15.725 198.033 15.7841 197.853 15.7841H190.423V19.8881H198.591C198.771 19.8881 198.919 19.9472 199.034 20.0654C199.149 20.1837 199.206 20.3357 199.206 20.5214V22.5228C199.206 22.7086 199.149 22.8606 199.034 22.9788C198.919 23.097 198.771 23.1561 198.591 23.1561H187.25Z" fill="url(#paint7_linear_428_135)"/>
<path d="M208.176 23.1561C207.995 23.1561 207.848 23.097 207.733 22.9788C207.618 22.8606 207.561 22.7086 207.561 22.5228V6.0561C207.561 5.87032 207.618 5.71832 207.733 5.6001C207.848 5.48188 207.995 5.42277 208.176 5.42277H214.351C215.991 5.42277 217.36 5.69299 218.459 6.23343C219.558 6.75699 220.394 7.53388 220.968 8.5641C221.559 9.57744 221.871 10.8357 221.903 12.3388C221.92 13.0819 221.928 13.7321 221.928 14.2894C221.928 14.8468 221.92 15.4886 221.903 16.2148C221.854 17.7854 221.551 19.0859 220.993 20.1161C220.435 21.1463 219.615 21.9148 218.533 22.4214C217.45 22.9112 216.097 23.1561 214.474 23.1561H208.176ZM211.472 19.8881H214.351C215.171 19.8881 215.843 19.7614 216.368 19.5081C216.893 19.2548 217.278 18.8579 217.524 18.3174C217.787 17.7601 217.926 17.0423 217.942 16.1641C217.959 15.6743 217.967 15.2352 217.967 14.8468C217.983 14.4583 217.983 14.0699 217.967 13.6814C217.967 13.293 217.959 12.8623 217.942 12.3894C217.91 11.1228 217.59 10.1939 216.983 9.60277C216.393 8.99477 215.474 8.69077 214.228 8.69077H211.472V19.8881Z" fill="url(#paint8_linear_428_135)"/>
<path d="M225.618 23.1561C225.437 23.1561 225.29 23.097 225.175 22.9788C225.06 22.8606 225.003 22.7086 225.003 22.5228V6.0561C225.003 5.87032 225.06 5.71832 225.175 5.6001C225.29 5.48188 225.437 5.42277 225.618 5.42277H236.762C236.943 5.42277 237.09 5.48188 237.205 5.6001C237.32 5.71832 237.378 5.87032 237.378 6.0561V8.08277C237.378 8.25166 237.32 8.39521 237.205 8.51344C237.09 8.63166 236.943 8.69077 236.762 8.69077H228.791V12.6681H236.221C236.402 12.6681 236.549 12.7272 236.664 12.8454C236.779 12.9637 236.836 13.1157 236.836 13.3014V15.1761C236.836 15.345 236.779 15.4886 236.664 15.6068C236.549 15.725 236.402 15.7841 236.221 15.7841H228.791V19.8881H236.959C237.14 19.8881 237.287 19.9472 237.402 20.0654C237.517 20.1837 237.574 20.3357 237.574 20.5214V22.5228C237.574 22.7086 237.517 22.8606 237.402 22.9788C237.287 23.097 237.14 23.1561 236.959 23.1561H225.618Z" fill="url(#paint9_linear_428_135)"/>
<path d="M125.278 30.5544C124.94 31.1774 124.518 32.0275 124.011 33.1048C123.517 34.169 123.029 35.454 122.548 36.9595C122.067 38.4521 121.638 40.1524 121.261 42.0603C120.883 43.9552 120.656 46.0319 120.578 48.2902C120.513 49.7569 120.526 51.0613 120.617 52.2034C120.721 53.3586 120.896 54.332 121.144 55.1237C121.404 55.9154 121.742 56.5125 122.158 56.9148C122.574 57.3172 123.074 57.5118 123.66 57.4989C124.531 57.4859 125.408 57.2003 126.293 56.6422C127.19 56.0841 128.061 55.3379 128.906 54.4034C129.764 53.4689 130.59 52.3916 131.383 51.1716C132.189 49.9516 132.95 48.6731 133.665 47.3363C134.38 45.9865 135.037 44.6237 135.635 43.2479C136.246 41.8721 136.779 40.5612 137.234 39.3152C137.69 38.0692 138.06 36.9336 138.346 35.9082C138.645 34.8829 138.84 34.0522 138.931 33.4163C139.087 32.313 139.204 31.2812 139.282 30.3208C139.36 29.3603 139.38 28.4972 139.341 27.7314C139.315 26.9657 139.217 26.3232 139.048 25.8041C138.879 25.2719 138.626 24.889 138.288 24.6554C138.054 24.5256 137.95 24.3634 137.976 24.1687C138.002 23.974 138.099 23.8247 138.268 23.7209C138.437 23.6041 138.652 23.5652 138.912 23.6041C139.172 23.6301 139.419 23.7923 139.653 24.0908C139.9 24.4023 140.082 24.876 140.199 25.512C140.316 26.148 140.368 26.9073 140.355 27.7898C140.355 28.6594 140.29 29.6329 140.16 30.7101C140.03 31.7744 139.841 32.9036 139.594 34.0977C139.412 34.9413 139.165 35.9472 138.853 37.1153C138.541 38.2834 138.164 39.5359 137.722 40.8727C137.28 42.2096 136.779 43.5983 136.22 45.039C135.661 46.4667 135.037 47.8684 134.348 49.2442C133.672 50.62 132.937 51.9179 132.144 53.1379C131.364 54.3709 130.532 55.4482 129.647 56.3697C128.763 57.3042 127.827 58.044 126.839 58.5891C125.864 59.1472 124.843 59.4327 123.777 59.4457C123.048 59.4587 122.411 59.2251 121.865 58.7449C121.319 58.2646 120.87 57.5702 120.519 56.6617C120.181 55.7662 119.934 54.6824 119.778 53.4105C119.635 52.1385 119.596 50.7238 119.661 49.1663C119.713 47.8295 119.817 46.4732 119.973 45.0974C120.129 43.7216 120.311 42.3718 120.519 41.0479C120.74 39.7241 120.987 38.4521 121.261 37.2321C121.534 36.0121 121.8 34.8959 122.06 33.8835C122.333 32.8711 122.6 31.9821 122.86 31.2163C123.12 30.4505 123.354 29.86 123.562 29.4447C123.77 29.0164 124.017 28.7698 124.303 28.7049C124.589 28.627 124.836 28.6659 125.044 28.8217C125.252 28.9774 125.389 29.2175 125.454 29.542C125.532 29.8535 125.473 30.191 125.278 30.5544Z" fill="url(#paint10_linear_428_135)"/>
<path d="M146.759 41.8461C146.616 41.963 146.428 42.1706 146.194 42.4691C145.973 42.7677 145.719 43.0986 145.433 43.462C145.147 43.8254 144.835 44.1953 144.497 44.5717C144.159 44.9352 143.808 45.2531 143.444 45.5257C143.093 45.7853 142.728 45.967 142.351 46.0708C141.987 46.1747 141.63 46.1357 141.279 45.954C140.967 45.7983 140.765 45.5322 140.674 45.1558C140.57 44.7794 140.544 44.39 140.596 43.9877C140.687 43.183 140.941 42.4367 141.357 41.7488C141.786 41.0609 142.312 40.4769 142.936 39.9966C143.574 39.5034 144.282 39.14 145.062 38.9064C145.843 38.6728 146.642 38.6144 147.461 38.7312C147.956 38.7961 148.417 38.9518 148.846 39.1984C149.275 39.432 149.6 39.7825 149.821 40.2497C149.925 40.4704 149.945 40.6456 149.88 40.7754C149.815 40.9052 149.711 40.983 149.568 41.009C149.438 41.035 149.288 41.0025 149.119 40.9117C148.963 40.8078 148.84 40.6391 148.749 40.4055C148.567 40.068 148.339 39.8149 148.066 39.6462C147.793 39.4645 147.5 39.3607 147.188 39.3347C146.785 39.2958 146.376 39.3736 145.96 39.5683C145.544 39.75 145.147 40.0096 144.77 40.3471C144.393 40.6715 144.048 41.0479 143.736 41.4762C143.424 41.9045 143.177 42.3393 142.995 42.7806C142.956 42.8715 142.904 42.9948 142.839 43.1505C142.787 43.3063 142.741 43.475 142.702 43.6567C142.663 43.8254 142.637 43.9942 142.624 44.1629C142.624 44.3186 142.657 44.4419 142.722 44.5328C142.774 44.6107 142.897 44.5847 143.093 44.4549C143.301 44.3251 143.541 44.1434 143.814 43.9098C144.087 43.6632 144.373 43.3842 144.672 43.0727C144.984 42.7612 145.277 42.4626 145.55 42.1771C145.836 41.8916 146.083 41.6385 146.291 41.4178C146.499 41.1972 146.636 41.0544 146.701 40.9895C146.935 40.7689 147.169 40.6261 147.403 40.5612C147.637 40.4833 147.839 40.4704 148.008 40.5223C148.19 40.5742 148.32 40.678 148.398 40.8338C148.489 40.9895 148.502 41.1712 148.437 41.3789C148.216 42.0408 148.079 42.6119 148.027 43.0921C147.975 43.5724 147.988 43.9747 148.066 44.2992C148.144 44.6107 148.281 44.8573 148.476 45.039C148.671 45.2207 148.905 45.344 149.178 45.4089C149.646 45.5127 150.199 45.4738 150.836 45.2921C151.486 45.0974 152.136 44.8183 152.786 44.4549C153.449 44.0915 154.073 43.6827 154.658 43.2284C155.244 42.7741 155.712 42.3393 156.063 41.924C156.193 41.7423 156.336 41.6255 156.492 41.5736C156.648 41.5217 156.771 41.5217 156.862 41.5736C156.966 41.6255 157.012 41.7293 156.999 41.8851C156.986 42.0279 156.882 42.2031 156.687 42.4107C156.258 42.9169 155.738 43.4166 155.127 43.9098C154.528 44.403 153.878 44.8313 153.176 45.1947C152.474 45.5581 151.746 45.8372 150.992 46.0319C150.251 46.2266 149.522 46.285 148.807 46.2071C148.222 46.1552 147.735 45.9994 147.344 45.7399C146.954 45.4673 146.668 45.1363 146.486 44.747C146.317 44.3446 146.252 43.8968 146.291 43.4036C146.33 42.8974 146.486 42.3783 146.759 41.8461Z" fill="url(#paint11_linear_428_135)"/>
<path d="M178.957 25.3952C178.138 26.3427 177.332 27.5108 176.538 28.8995C175.758 30.2753 175.017 31.7939 174.315 33.4552C174.965 33.4033 175.628 33.3514 176.304 33.2994C176.994 33.2475 177.676 33.2151 178.352 33.2021C179.041 33.1761 179.718 33.1697 180.381 33.1826C181.044 33.1956 181.681 33.2345 182.292 33.2994C183.111 33.4033 183.859 33.559 184.535 33.7667C185.211 33.9614 185.777 34.2404 186.232 34.6038C186.401 34.7466 186.453 34.9088 186.388 35.0906C186.336 35.2593 186.225 35.3956 186.056 35.4994C185.887 35.5902 185.699 35.6162 185.491 35.5773C185.283 35.5254 185.114 35.3566 184.984 35.0711C184.802 34.6558 184.457 34.3443 183.95 34.1366C183.456 33.916 182.858 33.7667 182.156 33.6888C181.597 33.6369 180.985 33.6174 180.322 33.6304C179.672 33.6304 178.996 33.6629 178.294 33.7278C177.592 33.7797 176.877 33.8511 176.148 33.9419C175.42 34.0198 174.705 34.1041 174.003 34.195C173.418 35.6357 172.865 37.1412 172.345 38.7117C171.838 40.2822 171.389 41.8591 170.999 43.4426C170.609 45.026 170.278 46.59 170.005 48.1345C169.745 49.692 169.569 51.1781 169.478 52.5928C169.413 53.6311 169.556 54.4812 169.907 55.1432C170.271 55.8051 170.785 56.3243 171.448 56.7007C171.682 56.8434 171.799 56.9992 171.799 57.1679C171.812 57.3366 171.74 57.4729 171.584 57.5767C171.428 57.6806 171.214 57.7195 170.941 57.6936C170.681 57.6676 170.401 57.5183 170.102 57.2458C169.686 56.8304 169.367 56.2269 169.146 55.4352C168.938 54.6565 168.821 53.7414 168.795 52.6901C168.756 51.6778 168.789 50.5356 168.893 49.2637C169.01 47.9917 169.179 46.6484 169.4 45.2337C169.621 43.806 169.894 42.3393 170.219 40.8338C170.544 39.3282 170.902 37.8421 171.292 36.3755C170.577 37.894 169.849 39.3542 169.107 40.7559C168.366 42.1576 167.625 43.3906 166.884 44.4549C166.156 45.5192 165.441 46.3564 164.738 46.9664C164.036 47.5634 163.373 47.8295 162.749 47.7646C162.216 47.7386 161.78 47.5634 161.442 47.2389C161.117 46.9145 160.877 46.5186 160.721 46.0513C160.578 45.5841 160.513 45.0779 160.526 44.5328C160.552 43.9877 160.643 43.4815 160.799 43.0143C160.825 42.9364 160.844 42.8585 160.857 42.7806C160.883 42.7028 160.883 42.6508 160.857 42.6249C160.831 42.573 160.734 42.6573 160.565 42.878C160.409 43.0856 160.207 43.3647 159.96 43.7151C159.726 44.0656 159.466 44.4679 159.18 44.9222C158.907 45.3635 158.64 45.7983 158.38 46.2266C158.133 46.6419 157.899 47.0313 157.678 47.3947C157.47 47.7451 157.32 48.0047 157.229 48.1734C157.086 48.3551 156.937 48.5044 156.781 48.6212C156.638 48.738 156.482 48.7964 156.313 48.7964C156.092 48.7964 155.916 48.7315 155.786 48.6017C155.656 48.4849 155.552 48.3357 155.474 48.154C155.383 47.9722 155.318 47.7776 155.279 47.5699C155.24 47.3622 155.214 47.1675 155.201 46.9858C155.149 46.4797 155.168 45.8761 155.259 45.1753C155.35 44.4744 155.493 43.7735 155.689 43.0727C155.871 42.3718 156.092 41.7164 156.352 41.1063C156.612 40.4833 156.878 40.0096 157.151 39.6851C157.359 39.4385 157.574 39.2828 157.795 39.2179C158.029 39.14 158.237 39.1335 158.419 39.1984C158.614 39.2503 158.757 39.3607 158.848 39.5294C158.939 39.6851 158.952 39.8668 158.887 40.0745C158.77 40.4639 158.575 40.983 158.302 41.632C158.029 42.268 157.749 42.9364 157.463 43.6372C157.19 44.3381 156.943 45.0195 156.722 45.6814C156.501 46.3434 156.378 46.895 156.352 47.3363C156.352 47.3622 156.352 47.4077 156.352 47.4726C156.352 47.5245 156.358 47.5699 156.371 47.6088C156.384 47.6478 156.404 47.6737 156.43 47.6867C156.469 47.6867 156.521 47.6478 156.586 47.5699C156.625 47.518 156.716 47.3622 156.859 47.1027C157.015 46.8301 157.203 46.4991 157.424 46.1098C157.658 45.7074 157.919 45.2726 158.205 44.8054C158.491 44.3251 158.79 43.8579 159.102 43.4036C159.427 42.9494 159.752 42.534 160.077 42.1576C160.415 41.7683 160.74 41.4568 161.052 41.2231C161.351 41.0025 161.631 40.8857 161.891 40.8727C162.164 40.8468 162.398 40.9701 162.593 41.2426C162.736 41.4503 162.788 41.7164 162.749 42.0408C162.723 42.3653 162.658 42.7222 162.554 43.1116C162.463 43.488 162.359 43.8774 162.242 44.2797C162.138 44.6821 162.079 45.0585 162.066 45.4089C162.053 45.7463 162.112 46.0513 162.242 46.3239C162.385 46.5835 162.652 46.7652 163.042 46.869C163.38 46.908 163.744 46.7782 164.134 46.4797C164.537 46.1811 164.96 45.7528 165.402 45.1947C165.844 44.6366 166.305 43.9682 166.786 43.1895C167.267 42.4107 167.755 41.5606 168.249 40.6391C168.743 39.7046 169.237 38.7247 169.732 37.6993C170.239 36.674 170.739 35.6292 171.233 34.5649C171.181 34.5649 171.129 34.5714 171.077 34.5844C171.038 34.5844 170.999 34.5844 170.96 34.5844L167.547 34.8959C166.351 34.9737 165.148 35.0257 163.939 35.0516C162.73 35.0776 161.494 35.0581 160.233 34.9932C159.505 34.9673 158.848 34.9218 158.263 34.8569C157.691 34.792 157.216 34.7077 156.839 34.6038C156.605 34.487 156.475 34.3378 156.449 34.1561C156.423 33.9744 156.462 33.8316 156.566 33.7278C156.67 33.6109 156.82 33.5785 157.015 33.6304C157.21 33.6693 157.405 33.8575 157.6 34.195C158.016 34.2599 158.413 34.3118 158.79 34.3507C159.18 34.3897 159.563 34.4221 159.94 34.4481C161.241 34.513 162.541 34.5065 163.841 34.4286C165.155 34.3507 166.468 34.2404 167.781 34.0977L171.331 33.7472C171.383 33.7472 171.428 33.7472 171.467 33.7472C171.506 33.7342 171.552 33.7278 171.604 33.7278C172.098 32.6635 172.573 31.6187 173.028 30.5933C173.496 29.555 173.938 28.5686 174.354 27.6341C174.679 26.9332 174.998 26.2973 175.31 25.7262C175.635 25.1421 175.953 24.6489 176.265 24.2466C176.447 24 176.675 23.8118 176.948 23.682C177.221 23.5392 177.494 23.4548 177.767 23.4289C178.053 23.3899 178.32 23.4094 178.567 23.4873C178.814 23.5522 179.002 23.669 179.133 23.8377C179.276 23.9935 179.341 24.2076 179.328 24.4802C179.315 24.7398 179.191 25.0448 178.957 25.3952Z" fill="url(#paint12_linear_428_135)"/>
<path d="M180.834 41.8461C180.691 41.963 180.503 42.1706 180.269 42.4691C180.048 42.7677 179.794 43.0986 179.508 43.462C179.222 43.8254 178.91 44.1953 178.572 44.5717C178.234 44.9352 177.883 45.2531 177.519 45.5257C177.168 45.7853 176.804 45.967 176.426 46.0708C176.062 46.1747 175.705 46.1357 175.354 45.954C175.042 45.7983 174.84 45.5322 174.749 45.1558C174.645 44.7794 174.619 44.39 174.671 43.9877C174.762 43.183 175.016 42.4367 175.432 41.7488C175.861 41.0609 176.387 40.4769 177.012 39.9966C177.649 39.5034 178.357 39.14 179.138 38.9064C179.918 38.6728 180.717 38.6144 181.537 38.7312C182.031 38.7961 182.492 38.9518 182.921 39.1984C183.35 39.432 183.675 39.7825 183.897 40.2497C184.001 40.4704 184.02 40.6456 183.955 40.7754C183.89 40.9052 183.786 40.983 183.643 41.009C183.513 41.035 183.363 41.0025 183.194 40.9117C183.038 40.8078 182.915 40.6391 182.824 40.4055C182.642 40.068 182.414 39.8149 182.141 39.6462C181.868 39.4645 181.576 39.3607 181.263 39.3347C180.86 39.2958 180.451 39.3736 180.035 39.5683C179.619 39.75 179.222 40.0096 178.845 40.3471C178.468 40.6715 178.123 41.0479 177.811 41.4762C177.499 41.9045 177.252 42.3393 177.07 42.7806C177.031 42.8715 176.979 42.9948 176.914 43.1505C176.862 43.3063 176.817 43.475 176.778 43.6567C176.739 43.8254 176.713 43.9942 176.7 44.1629C176.7 44.3186 176.732 44.4419 176.797 44.5328C176.849 44.6107 176.973 44.5847 177.168 44.4549C177.376 44.3251 177.616 44.1434 177.889 43.9098C178.162 43.6632 178.448 43.3842 178.747 43.0727C179.06 42.7612 179.352 42.4626 179.625 42.1771C179.911 41.8916 180.158 41.6385 180.366 41.4178C180.574 41.1972 180.711 41.0544 180.776 40.9895C181.01 40.7689 181.244 40.6261 181.478 40.5612C181.712 40.4833 181.914 40.4704 182.083 40.5223C182.265 40.5742 182.395 40.678 182.473 40.8338C182.564 40.9895 182.577 41.1712 182.512 41.3789C182.291 42.0408 182.154 42.6119 182.102 43.0921C182.05 43.5724 182.063 43.9747 182.141 44.2992C182.219 44.6107 182.356 44.8573 182.551 45.039C182.746 45.2207 182.98 45.344 183.253 45.4089C183.721 45.5127 184.274 45.4738 184.911 45.2921C185.561 45.0974 186.211 44.8183 186.861 44.4549C187.524 44.0915 188.148 43.6827 188.734 43.2284C189.319 42.7741 189.787 42.3393 190.138 41.924C190.268 41.7423 190.411 41.6255 190.567 41.5736C190.723 41.5217 190.847 41.5217 190.938 41.5736C191.042 41.6255 191.087 41.7293 191.074 41.8851C191.061 42.0279 190.957 42.2031 190.762 42.4107C190.333 42.9169 189.813 43.4166 189.202 43.9098C188.604 44.403 187.953 44.8313 187.251 45.1947C186.549 45.5581 185.821 45.8372 185.067 46.0319C184.326 46.2266 183.597 46.285 182.882 46.2071C182.297 46.1552 181.81 45.9994 181.42 45.7399C181.029 45.4673 180.743 45.1363 180.561 44.747C180.392 44.3446 180.327 43.8968 180.366 43.4036C180.405 42.8974 180.561 42.3783 180.834 41.8461Z" fill="url(#paint13_linear_428_135)"/>
<path d="M195.907 41.7877C195.764 41.9045 195.569 42.1122 195.322 42.4107C195.075 42.7093 194.796 43.0467 194.484 43.4231C194.185 43.7865 193.853 44.1564 193.489 44.5328C193.138 44.9092 192.767 45.2337 192.377 45.5062C192 45.7788 191.617 45.967 191.226 46.0708C190.849 46.1747 190.485 46.1357 190.134 45.954C189.822 45.7983 189.621 45.5322 189.53 45.1558C189.426 44.7794 189.4 44.39 189.452 43.9877C189.543 43.183 189.796 42.4367 190.212 41.7488C190.641 41.0609 191.168 40.4769 191.792 39.9966C192.429 39.5034 193.138 39.14 193.918 38.9064C194.698 38.6728 195.498 38.6144 196.317 38.7312C196.811 38.7961 197.273 38.9518 197.702 39.1984C198.131 39.432 198.456 39.7825 198.677 40.2497C198.781 40.4704 198.801 40.6456 198.736 40.7754C198.671 40.9052 198.566 40.983 198.423 41.009C198.293 41.035 198.144 41.0025 197.975 40.9117C197.819 40.8078 197.695 40.6391 197.604 40.4055C197.422 40.068 197.195 39.8149 196.922 39.6462C196.649 39.4645 196.356 39.3607 196.044 39.3347C195.641 39.2958 195.231 39.3736 194.815 39.5683C194.399 39.75 194.003 40.0096 193.625 40.3471C193.248 40.6715 192.904 41.0479 192.592 41.4762C192.28 41.9045 192.033 42.3393 191.851 42.7806C191.812 42.8715 191.76 42.9948 191.695 43.1505C191.643 43.3063 191.597 43.475 191.558 43.6567C191.519 43.8254 191.493 43.9942 191.48 44.1629C191.48 44.3186 191.512 44.4419 191.578 44.5328C191.63 44.6107 191.76 44.5847 191.968 44.4549C192.189 44.3251 192.442 44.1434 192.728 43.9098C193.027 43.6632 193.339 43.3906 193.664 43.0921C194.003 42.7806 194.315 42.4821 194.601 42.1966C194.9 41.8981 195.147 41.632 195.342 41.3984C195.55 41.1647 195.673 41.009 195.712 40.9311C195.751 40.8403 195.823 40.7624 195.927 40.6975C196.044 40.6196 196.154 40.5807 196.258 40.5807C196.376 40.5807 196.473 40.6326 196.551 40.7364C196.642 40.8403 196.681 41.022 196.668 41.2816C196.668 41.8267 196.623 42.5665 196.532 43.501C196.454 44.4355 196.311 45.4933 196.102 46.6743C196.688 46.1552 197.312 45.6555 197.975 45.1753C198.651 44.6821 199.334 44.2343 200.023 43.8319C200.725 43.4166 201.414 43.0467 202.09 42.7222C202.779 42.3978 203.436 42.1317 204.06 41.924C204.372 41.8072 204.587 41.7748 204.704 41.8267C204.834 41.8656 204.899 41.9435 204.899 42.0603C204.899 42.1641 204.853 42.2745 204.762 42.3913C204.671 42.5081 204.567 42.5795 204.45 42.6054C203.787 42.7612 203.072 43.0207 202.305 43.3842C201.551 43.7346 200.79 44.1564 200.023 44.6496C199.256 45.1298 198.514 45.662 197.799 46.246C197.084 46.8171 196.441 47.3947 195.868 47.9787C195.634 49.2117 195.335 50.4902 194.971 51.814C194.607 53.1379 194.178 54.4228 193.684 55.6688C193.19 56.9278 192.624 58.1024 191.987 59.1926C191.363 60.2958 190.654 61.2239 189.861 61.9766C189.536 62.2881 189.191 62.5088 188.827 62.6386C188.45 62.7813 188.119 62.8073 187.833 62.7164C187.547 62.6386 187.332 62.4309 187.189 62.0934C187.033 61.756 187.014 61.2693 187.131 60.6333C187.235 60.0622 187.436 59.4263 187.735 58.7254C188.021 58.0245 188.372 57.2912 188.788 56.5254C189.205 55.7726 189.66 55.0069 190.154 54.2281C190.648 53.4494 191.148 52.6966 191.656 51.9698C192.163 51.243 192.65 50.5616 193.118 49.9256C193.599 49.3026 194.022 48.764 194.386 48.3097C194.568 47.7127 194.744 47.0767 194.913 46.4018C195.082 45.7139 195.231 45.0649 195.361 44.4549C195.504 43.8319 195.621 43.2803 195.712 42.8001C195.803 42.3199 195.868 41.9824 195.907 41.7877ZM190.329 58.0829C190.953 57.0835 191.538 55.9414 192.085 54.6565C192.644 53.3715 193.151 52.0736 193.606 50.7627C193.242 51.2819 192.865 51.8335 192.475 52.4176C192.085 53.0016 191.701 53.5922 191.324 54.1892C190.96 54.7992 190.602 55.4027 190.251 55.9998C189.913 56.6098 189.601 57.1939 189.315 57.752C188.912 58.5437 188.658 59.1342 188.554 59.5236C188.437 59.9259 188.437 60.1336 188.554 60.1466C188.671 60.1725 188.886 60.0103 189.198 59.6599C189.51 59.3094 189.887 58.7838 190.329 58.0829Z" fill="url(#paint14_linear_428_135)"/>
<path d="M204.526 41.1258C204.708 40.8662 204.929 40.6002 205.189 40.3276C205.449 40.055 205.735 39.8149 206.047 39.6073C206.359 39.3866 206.691 39.2244 207.042 39.1205C207.393 39.0167 207.757 39.0037 208.134 39.0816C208.485 39.1595 208.752 39.2893 208.934 39.471C209.116 39.6527 209.22 39.8539 209.246 40.0745C209.285 40.3341 209.213 40.5807 209.031 40.8143C208.849 41.035 208.596 41.2296 208.27 41.3984C207.958 41.5671 207.588 41.7034 207.159 41.8072C206.743 41.8981 206.314 41.937 205.871 41.924C205.741 42.2225 205.618 42.56 205.501 42.9364C205.397 43.3128 205.345 43.6892 205.345 44.0656C205.345 44.429 205.416 44.7664 205.559 45.0779C205.715 45.3894 205.988 45.623 206.379 45.7788C206.782 45.9475 207.243 45.9865 207.763 45.8956C208.296 45.7918 208.843 45.6166 209.402 45.3699C209.974 45.1104 210.533 44.8054 211.079 44.4549C211.625 44.1045 212.126 43.7605 212.581 43.4231C213.036 43.0727 213.42 42.7612 213.732 42.4886C214.044 42.216 214.239 42.0278 214.317 41.924C214.46 41.7423 214.609 41.6255 214.765 41.5736C214.921 41.5087 215.038 41.5022 215.116 41.5541C215.207 41.593 215.246 41.6904 215.233 41.8461C215.22 41.9889 215.11 42.1706 214.902 42.3913C214.603 42.7417 214.232 43.1116 213.79 43.501C213.348 43.8774 212.86 44.2408 212.327 44.5912C211.807 44.9416 211.248 45.2726 210.65 45.5841C210.065 45.8956 209.467 46.1487 208.856 46.3434C208.244 46.5381 207.64 46.6743 207.042 46.7522C206.444 46.8171 205.871 46.7912 205.325 46.6743C204.623 46.5056 204.123 46.2136 203.824 45.7983C203.524 45.37 203.368 44.8962 203.355 44.3771C203.342 43.8449 203.453 43.2933 203.687 42.7222C203.908 42.1382 204.188 41.606 204.526 41.1258ZM207.627 39.8409C207.588 39.763 207.529 39.7241 207.451 39.7241C207.386 39.7111 207.295 39.7565 207.178 39.8603C207.074 39.9512 206.938 40.1069 206.769 40.3276C206.613 40.5482 206.431 40.8532 206.223 41.2426C206.418 41.2686 206.606 41.2361 206.788 41.1453C206.983 41.0414 207.152 40.9181 207.295 40.7754C207.438 40.6196 207.542 40.4574 207.607 40.2887C207.672 40.1069 207.679 39.9577 207.627 39.8409Z" fill="url(#paint15_linear_428_135)"/>
<path d="M219.122 42.6249C219.096 42.573 218.998 42.6573 218.829 42.878C218.673 43.0856 218.472 43.3647 218.225 43.7151C217.991 44.0656 217.731 44.4679 217.445 44.9222C217.171 45.3635 216.905 45.7983 216.645 46.2266C216.398 46.6419 216.164 47.0313 215.943 47.3947C215.735 47.7451 215.585 48.0047 215.494 48.1734C215.351 48.3551 215.202 48.5044 215.046 48.6212C214.903 48.738 214.746 48.7964 214.577 48.7964C214.356 48.7964 214.181 48.7315 214.051 48.6017C213.921 48.4849 213.817 48.3357 213.739 48.154C213.648 47.9722 213.583 47.7776 213.544 47.5699C213.505 47.3622 213.479 47.1675 213.466 46.9858C213.414 46.4797 213.433 45.8761 213.524 45.1753C213.615 44.4744 213.758 43.7735 213.953 43.0727C214.135 42.3718 214.356 41.7164 214.616 41.1063C214.877 40.4833 215.143 40.0096 215.416 39.6851C215.624 39.4385 215.839 39.2828 216.06 39.2179C216.294 39.14 216.502 39.1335 216.684 39.1984C216.879 39.2503 217.022 39.3607 217.113 39.5294C217.204 39.6851 217.217 39.8668 217.152 40.0745C217.035 40.4639 216.84 40.983 216.567 41.632C216.294 42.268 216.014 42.9364 215.728 43.6372C215.455 44.3381 215.208 45.0195 214.987 45.6814C214.766 46.3434 214.642 46.895 214.616 47.3363C214.616 47.3622 214.616 47.4077 214.616 47.4726C214.616 47.5245 214.623 47.5699 214.636 47.6088C214.649 47.6478 214.668 47.6737 214.694 47.6867C214.733 47.6867 214.785 47.6478 214.851 47.5699C214.89 47.518 214.981 47.3622 215.124 47.1027C215.28 46.8301 215.468 46.4991 215.689 46.1098C215.923 45.7074 216.183 45.2726 216.469 44.8054C216.755 44.3251 217.054 43.8579 217.367 43.4036C217.692 42.9494 218.017 42.534 218.342 42.1576C218.68 41.7683 219.005 41.4568 219.317 41.2231C219.616 41.0025 219.896 40.8857 220.156 40.8727C220.429 40.8468 220.663 40.9701 220.858 41.2426C221.001 41.4503 221.059 41.7164 221.033 42.0408C221.007 42.3523 220.942 42.6898 220.838 43.0532C220.747 43.4166 220.65 43.793 220.546 44.1824C220.442 44.5588 220.383 44.9157 220.37 45.2531C220.37 45.5776 220.435 45.8632 220.565 46.1098C220.708 46.3434 220.981 46.5056 221.384 46.5965C221.696 46.6743 222.048 46.6484 222.438 46.5186C222.841 46.3888 223.257 46.2006 223.686 45.954C224.128 45.6944 224.57 45.3959 225.012 45.0585C225.454 44.708 225.877 44.3511 226.28 43.9877C226.683 43.6113 227.054 43.2479 227.392 42.8974C227.743 42.534 228.035 42.2096 228.269 41.924C228.399 41.7423 228.542 41.6255 228.698 41.5736C228.854 41.5217 228.978 41.5217 229.069 41.5736C229.173 41.6255 229.219 41.7293 229.206 41.8851C229.193 42.0279 229.089 42.2031 228.893 42.4107C228.464 42.9169 227.944 43.4815 227.333 44.1045C226.735 44.7145 226.085 45.2791 225.383 45.7983C224.681 46.3044 223.952 46.7198 223.198 47.0442C222.457 47.3557 221.729 47.4726 221.014 47.3947C220.481 47.3428 220.045 47.174 219.707 46.8885C219.382 46.603 219.141 46.2525 218.985 45.8372C218.842 45.4219 218.777 44.9676 218.79 44.4744C218.816 43.9682 218.907 43.4815 219.063 43.0143C219.089 42.9364 219.109 42.8585 219.122 42.7806C219.148 42.7028 219.148 42.6508 219.122 42.6249Z" fill="url(#paint16_linear_428_135)"/>
<path d="M239.54 42.547C239.202 42.7417 238.799 42.9818 238.33 43.2673C237.862 43.5399 237.355 43.8449 236.809 44.1824C236.276 44.5068 235.704 44.8573 235.093 45.2337C234.495 45.6101 233.89 46.0059 233.279 46.4213C233.851 47.2389 234.053 48.1215 233.883 49.069C233.714 50.0164 233.298 50.9964 232.635 52.0087C232.284 52.5409 231.875 53.0471 231.406 53.5273C230.951 54.0075 230.47 54.4293 229.963 54.7927C229.469 55.1691 228.968 55.4676 228.461 55.6883C227.967 55.9089 227.506 56.0193 227.077 56.0193C226.712 56.0193 226.381 55.9738 226.082 55.883C225.77 55.7921 225.51 55.6493 225.302 55.4547C225.081 55.273 224.925 55.0328 224.834 54.7343C224.73 54.4488 224.704 54.1048 224.756 53.7025C224.834 53.1184 225.087 52.5084 225.516 51.8724C225.945 51.2365 226.485 50.594 227.135 49.9451C227.785 49.3091 228.52 48.6731 229.339 48.0371C230.158 47.4012 231.003 46.7912 231.875 46.2071C231.576 45.9216 231.205 45.662 230.763 45.4284C230.334 45.1818 229.924 44.9222 229.534 44.6496C229.144 44.3771 228.812 44.0656 228.539 43.7151C228.279 43.3647 228.162 42.9234 228.188 42.3913C228.214 41.8981 228.357 41.4373 228.617 41.009C228.89 40.5677 229.229 40.1978 229.632 39.8993C230.048 39.6008 230.509 39.3866 231.016 39.2568C231.523 39.1141 232.031 39.1011 232.538 39.2179C232.85 39.2828 233.084 39.3931 233.24 39.5489C233.409 39.6916 233.513 39.8474 233.552 40.0161C233.604 40.1718 233.597 40.3276 233.532 40.4833C233.467 40.6261 233.363 40.7364 233.22 40.8143C233.09 40.8792 232.921 40.9052 232.713 40.8922C232.518 40.8662 232.31 40.7559 232.089 40.5612C231.751 40.2757 231.426 40.1264 231.114 40.1134C230.802 40.0875 230.529 40.1589 230.295 40.3276C230.061 40.4963 229.879 40.7429 229.749 41.0674C229.619 41.3789 229.573 41.7293 229.612 42.1187C229.651 42.5081 229.781 42.865 230.002 43.1895C230.223 43.5139 230.483 43.819 230.782 44.1045C231.094 44.39 231.413 44.6626 231.738 44.9222C232.076 45.1818 232.382 45.4348 232.655 45.6814C233.864 44.8897 235.028 44.1694 236.146 43.5204C237.264 42.8715 238.207 42.3393 238.974 41.924C239.195 41.7942 239.39 41.7293 239.559 41.7293C239.741 41.7164 239.865 41.7488 239.93 41.8267C240.008 41.9045 240.021 42.0149 239.969 42.1576C239.917 42.2874 239.774 42.4172 239.54 42.547ZM232.479 47.7841C232.518 47.4985 232.499 47.2389 232.421 47.0053C231.615 47.5634 230.834 48.128 230.08 48.6991C229.326 49.2831 228.643 49.8542 228.032 50.4123C227.421 50.9704 226.908 51.509 226.491 52.0282C226.075 52.5603 225.802 53.0471 225.672 53.4883C225.607 53.709 225.588 53.9166 225.614 54.1113C225.64 54.319 225.711 54.4812 225.828 54.598C225.932 54.7278 226.082 54.8122 226.277 54.8511C226.459 54.8901 226.673 54.8576 226.921 54.7538C227.181 54.65 227.467 54.4877 227.779 54.2671C228.078 54.0464 228.383 53.7869 228.695 53.4883C229.02 53.2028 229.339 52.8848 229.651 52.5344C229.976 52.1839 230.282 51.814 230.568 51.4247C231.153 50.62 231.601 49.9191 231.914 49.3221C232.226 48.738 232.414 48.2253 232.479 47.7841Z" fill="url(#paint17_linear_428_135)"/>
<defs>
<linearGradient id="paint0_linear_428_135" x1="0" y1="33.9686" x2="107.815" y2="33.9686" gradientUnits="userSpaceOnUse">
<stop stop-color="#434D9C"/>
<stop offset="1" stop-color="#DBA092"/>
</linearGradient>
<linearGradient id="paint1_linear_428_135" x1="0" y1="33.9686" x2="107.815" y2="33.9686" gradientUnits="userSpaceOnUse">
<stop stop-color="#434D9C"/>
<stop offset="1" stop-color="#DBA092"/>
</linearGradient>
<linearGradient id="paint2_linear_428_135" x1="0" y1="33.9686" x2="107.815" y2="33.9686" gradientUnits="userSpaceOnUse">
<stop stop-color="#434D9C"/>
<stop offset="1" stop-color="#DBA092"/>
</linearGradient>
<linearGradient id="paint3_linear_428_135" x1="119.631" y1="43.0894" x2="240" y2="43.0894" gradientUnits="userSpaceOnUse">
<stop stop-color="#434D9C"/>
<stop offset="1" stop-color="#828EC5"/>
</linearGradient>
<linearGradient id="paint4_linear_428_135" x1="119.631" y1="43.0894" x2="240" y2="43.0894" gradientUnits="userSpaceOnUse">
<stop stop-color="#434D9C"/>
<stop offset="1" stop-color="#828EC5"/>
</linearGradient>
<linearGradient id="paint5_linear_428_135" x1="119.631" y1="43.0894" x2="240" y2="43.0894" gradientUnits="userSpaceOnUse">
<stop stop-color="#434D9C"/>
<stop offset="1" stop-color="#828EC5"/>
</linearGradient>
<linearGradient id="paint6_linear_428_135" x1="119.631" y1="43.0894" x2="240" y2="43.0894" gradientUnits="userSpaceOnUse">
<stop stop-color="#434D9C"/>
<stop offset="1" stop-color="#828EC5"/>
</linearGradient>
<linearGradient id="paint7_linear_428_135" x1="119.631" y1="43.0894" x2="240" y2="43.0894" gradientUnits="userSpaceOnUse">
<stop stop-color="#434D9C"/>
<stop offset="1" stop-color="#828EC5"/>
</linearGradient>
<linearGradient id="paint8_linear_428_135" x1="119.631" y1="43.0894" x2="240" y2="43.0894" gradientUnits="userSpaceOnUse">
<stop stop-color="#434D9C"/>
<stop offset="1" stop-color="#828EC5"/>
</linearGradient>
<linearGradient id="paint9_linear_428_135" x1="119.631" y1="43.0894" x2="240" y2="43.0894" gradientUnits="userSpaceOnUse">
<stop stop-color="#434D9C"/>
<stop offset="1" stop-color="#828EC5"/>
</linearGradient>
<linearGradient id="paint10_linear_428_135" x1="119.631" y1="43.0894" x2="240" y2="43.0894" gradientUnits="userSpaceOnUse">
<stop stop-color="#434D9C"/>
<stop offset="1" stop-color="#828EC5"/>
</linearGradient>
<linearGradient id="paint11_linear_428_135" x1="119.631" y1="43.0894" x2="240" y2="43.0894" gradientUnits="userSpaceOnUse">
<stop stop-color="#434D9C"/>
<stop offset="1" stop-color="#828EC5"/>
</linearGradient>
<linearGradient id="paint12_linear_428_135" x1="119.631" y1="43.0894" x2="240" y2="43.0894" gradientUnits="userSpaceOnUse">
<stop stop-color="#434D9C"/>
<stop offset="1" stop-color="#828EC5"/>
</linearGradient>
<linearGradient id="paint13_linear_428_135" x1="119.631" y1="43.0894" x2="240" y2="43.0894" gradientUnits="userSpaceOnUse">
<stop stop-color="#434D9C"/>
<stop offset="1" stop-color="#828EC5"/>
</linearGradient>
<linearGradient id="paint14_linear_428_135" x1="119.631" y1="43.0894" x2="240" y2="43.0894" gradientUnits="userSpaceOnUse">
<stop stop-color="#434D9C"/>
<stop offset="1" stop-color="#828EC5"/>
</linearGradient>
<linearGradient id="paint15_linear_428_135" x1="119.631" y1="43.0894" x2="240" y2="43.0894" gradientUnits="userSpaceOnUse">
<stop stop-color="#434D9C"/>
<stop offset="1" stop-color="#828EC5"/>
</linearGradient>
<linearGradient id="paint16_linear_428_135" x1="119.631" y1="43.0894" x2="240" y2="43.0894" gradientUnits="userSpaceOnUse">
<stop stop-color="#434D9C"/>
<stop offset="1" stop-color="#828EC5"/>
</linearGradient>
<linearGradient id="paint17_linear_428_135" x1="119.631" y1="43.0894" x2="240" y2="43.0894" gradientUnits="userSpaceOnUse">
<stop stop-color="#434D9C"/>
<stop offset="1" stop-color="#828EC5"/>
</linearGradient>
</defs>
</svg>
